<svg id="Layer_1" xmlns="http://www.w3.org/2000/svg" viewBox="0 0 370.7 262.1"><style>.st0,.st1{fill:#fb7e68;stroke:#d43d22;stroke-width:8;stroke-miterlimit:10}.st1{fill:#fff}</style><path id="XMLID_10_" class="st0" d="M184 257.3s99 2.6 180.8-69.1c0 0-71.5-72.8-178.5-74.9l-2.3 144z"/><path id="XMLID_9_" class="st0" d="M212.8 252.5s91.7-37.4 137.9-135.9c0 0-94.7-38-193.5 3.1l55.6 132.8z"/><path id="XMLID_65_" class="st0" d="M235.9 237.1s70.7-69.3 76.1-178c0 0-102.1.7-178 76.1l101.9 101.9z"/><path id="XMLID_66_" class="st0" d="M251.1 213s38-91.4.6-193.6c0 0-93.7 40.6-134.1 139.6l133.5 54z"/><path id="XMLID_14_" class="st0" d="M186.6 256.3s-99 2.6-180.8-69.1c0 0 71.5-72.8 178.5-74.9l2.3 144z"/><path id="XMLID_13_" class="st0" d="M157.9 251.5S66.2 214.1 20 115.6c0 0 94.7-38 193.5 3.1l-55.6 132.8z"/><path id="XMLID_12_" class="st0" d="M134.8 236.1s-70.7-69.3-76.1-178c0 0 102.1.7 178 76.1L134.8 236.1z"/><path id="XMLID_11_" class="st0" d="M119.6 212s-38-91.4-.6-193.6c0 0 93.7 40.6 134.1 139.6l-133.5 54z"/><path id="XMLID_63_" class="st0" d="M113.6 185.5s-1-99 72-179.7c0 0 71.7 72.7 72 179.7h-144z"/><circle id="XMLID_60_" class="st1" cx="185.1" cy="186.1" r="72"/><circle id="XMLID_62_" class="st0" cx="185.4" cy="186.1" r="36"/></svg>
